<svg width="100" height="100" viewBox="0 0 100 100" fill="none" xmlns="http://www.w3.org/2000/svg">
<path fill-rule="evenodd" clip-rule="evenodd" d="M0 66.3153C0 57.2901 5.74072 49.4356 14.208 45.3833V44.7864C5.74072 40.7341 0 32.8796 0 23.8544C0 10.68 12.2327 0 27.3224 0C36.7673 0 45.0929 4.18411 50.0001 10.5451C54.9074 4.18411 63.233 0 72.6779 0C87.7676 0 100 10.68 100 23.8544C100 33.0723 94.0118 41.0689 85.2463 45.0407V45.129C94.0118 49.1008 100 57.0975 100 66.3153C100 79.4897 87.7676 90.1697 72.6779 90.1697C68.1014 90.1697 63.7877 89.1873 59.9983 87.451L34.418 100L46.4382 83.3592C41.5108 87.5723 34.764 90.1697 27.3224 90.1697C12.2327 90.1697 0 79.4897 0 66.3153Z" fill="#88D9E9"/>
<ellipse cx="9.92963" cy="12.1375" rx="9.92963" ry="12.1375" transform="matrix(0.962572 -0.283234 0.449456 0.898383 41.5303 18.679)" fill="white"/>
<ellipse cx="3.16597" cy="6.77676" rx="3.16597" ry="6.77676" transform="matrix(0.962572 -0.283234 0.449456 0.898383 56.916 19.5725)" fill="black"/>
<ellipse cx="9.92963" cy="12.1375" rx="9.92963" ry="12.1375" transform="matrix(0.962572 -0.283234 0.449456 0.898383 63.415 12.2386)" fill="white"/>
<ellipse cx="3.16597" cy="6.77676" rx="3.16597" ry="6.77676" transform="matrix(0.962572 -0.283234 0.449456 0.898383 78.8008 13.1326)" fill="black"/>
</svg>
