<svg width="120" height="120" viewBox="0 0 120 120" fill="none" xmlns="http://www.w3.org/2000/svg">
<path fill-rule="evenodd" clip-rule="evenodd" d="M120 79.5784C120 68.7482 113.111 59.3228 102.95 54.46V53.7436C113.111 48.8808 120 39.4554 120 28.6252C120 12.8159 105.321 0 87.2132 0C75.8793 0 65.8886 5.02096 59.9999 12.6542C54.1113 5.02096 44.1206 0 32.7866 0C14.679 0 -0.000152588 12.8159 -0.000152588 28.6252C-0.000152588 39.6866 7.18603 49.2827 17.7047 54.0488V54.1548C7.18603 58.9209 -0.000152588 68.5169 -0.000152588 79.5784C-0.000152588 95.3876 14.679 108.204 32.7866 108.204C38.2785 108.204 43.4551 107.025 48.0024 104.941L78.6984 120L64.2745 100.031C70.1874 105.087 78.2834 108.204 87.2132 108.204C105.321 108.204 120 95.3876 120 79.5784Z" fill="#DFDFDF"/>
<ellipse cx="11.9155" cy="14.5649" rx="11.9155" ry="14.5649" transform="matrix(-0.849765 0.533541 0.375353 0.931779 59.5029 8)" fill="white"/>
<ellipse cx="3.79915" cy="8.13209" rx="3.79915" ry="8.13209" transform="matrix(-0.849765 0.533541 0.375353 0.931779 48.0771 22.5422)" fill="#404040"/>
<ellipse cx="11.9155" cy="14.5649" rx="11.9155" ry="14.5649" transform="matrix(-0.849765 0.533541 0.375353 0.931779 36.3184 22.5552)" fill="white"/>
<ellipse cx="3.79915" cy="8.13209" rx="3.79915" ry="8.13209" transform="matrix(-0.849765 0.533541 0.375353 0.931779 24.8926 37.0977)" fill="#404040"/>
</svg>
