<svg width="25" height="25" viewBox="0 0 25 25" fill="none" xmlns="http://www.w3.org/2000/svg">
<path d="M15.3542 9.37504L14.9937 18.75M10.0062 18.75L9.64583 9.37504M20.0292 6.03129C20.3847 6.08545 20.7396 6.14309 21.0937 6.2042M20.0292 6.03129L18.9167 20.4927C18.8713 21.0815 18.6053 21.6315 18.1719 22.0326C17.7385 22.4337 17.1697 22.6565 16.5792 22.6563H8.42083C7.83031 22.6565 7.26148 22.4337 6.8281 22.0326C6.39472 21.6315 6.12874 21.0815 6.08333 20.4927L4.97083 6.03129M20.0292 6.03129C18.827 5.84943 17.6185 5.71149 16.4062 5.61774M4.97083 6.03129C4.61528 6.08476 4.26042 6.14205 3.90625 6.20316M4.97083 6.03129C6.17304 5.84943 7.38148 5.71149 8.59375 5.61774M16.4062 5.61774V4.66358C16.4062 3.43441 15.4583 2.40941 14.2292 2.37087C13.0767 2.33406 11.9233 2.33406 10.7708 2.37087C9.54167 2.40941 8.59375 3.43545 8.59375 4.66358V5.61774M16.4062 5.61774C13.8059 5.41815 11.1941 5.41815 8.59375 5.61774" stroke="#FF0E0E" stroke-width="1.5" stroke-linecap="round" stroke-linejoin="round"/>
</svg>
