<svg width="25" height="25" viewBox="0 0 25 25" fill="none" xmlns="http://www.w3.org/2000/svg">
<path d="M21.475 3.65772C21.1331 3.29799 20.7227 3.01035 20.2678 2.81174C19.813 2.61313 19.323 2.50757 18.8268 2.50128C18.3305 2.49498 17.838 2.58809 17.3783 2.77511C16.9186 2.96213 16.501 3.23928 16.15 3.59022L4.43129 15.309C4.02225 15.7187 3.73828 16.2363 3.61254 16.8015L2.51504 21.739C2.49209 21.8417 2.49545 21.9486 2.52482 22.0497C2.5542 22.1507 2.60862 22.2428 2.68306 22.3172C2.75749 22.3916 2.84952 22.4461 2.95061 22.4754C3.05169 22.5048 3.15856 22.5082 3.26129 22.4852L8.16879 21.394C8.75353 21.2651 9.28894 20.9709 9.71129 20.5465L19.6863 10.5715L20.1075 10.9915C20.3419 11.2259 20.4735 11.5438 20.4735 11.8752C20.4735 12.2067 20.3419 12.5246 20.1075 12.759L18.9325 13.934C18.8188 14.052 18.7561 14.21 18.7577 14.3738C18.7594 14.5377 18.8253 14.6944 18.9414 14.8101C19.0574 14.9258 19.2143 14.9913 19.3782 14.9925C19.542 14.9937 19.6998 14.9305 19.8175 14.8165L20.9913 13.6415C21.46 13.1726 21.7233 12.5369 21.7233 11.874C21.7233 11.2111 21.46 10.5753 20.9913 10.1065L20.5713 9.68647L21.4088 8.84897C22.0944 8.16302 22.485 7.23635 22.4971 6.26656C22.5092 5.29678 22.1433 4.36062 21.475 3.65772ZM17.0325 4.47397C17.4966 4.01647 18.1228 3.76104 18.7745 3.76337C19.4262 3.76571 20.0505 4.02562 20.5113 4.48644C20.9721 4.94725 21.232 5.57157 21.2344 6.22326C21.2367 6.87494 20.9813 7.50111 20.5238 7.96522L8.82754 19.6627C8.57324 19.9191 8.25031 20.0967 7.89754 20.174L3.94754 21.0515L4.83254 17.0727C4.90639 16.7392 5.07427 16.4338 5.31629 16.1927L17.0325 4.47397Z" fill="#89D9E9"/>
</svg>
