<svg width="8" height="27" viewBox="0 0 8 27" fill="none" xmlns="http://www.w3.org/2000/svg">
<path d="M6.15761 17.468H1.87361L0.97361 0.295998H7.05761L6.15761 17.468ZM0.90161 23.48C0.90161 22.376 1.20161 21.608 1.80161 21.176C2.40161 20.72 3.13361 20.492 3.99761 20.492C4.83761 20.492 5.55761 20.72 6.15761 21.176C6.75761 21.608 7.05761 22.376 7.05761 23.48C7.05761 24.536 6.75761 25.304 6.15761 25.784C5.55761 26.24 4.83761 26.468 3.99761 26.468C3.13361 26.468 2.40161 26.24 1.80161 25.784C1.20161 25.304 0.90161 24.536 0.90161 23.48Z" fill="#404040"/>
</svg>
