<svg width="15" height="15" viewBox="0 0 15 15" fill="none" xmlns="http://www.w3.org/2000/svg">
<path d="M2.14097 1.60949C2.10611 1.57462 2.06472 1.54696 2.01916 1.52809C1.97361 1.50922 1.92478 1.49951 1.87547 1.49951C1.82617 1.49951 1.77734 1.50922 1.73179 1.52809C1.68623 1.54696 1.64484 1.57462 1.60997 1.60949C1.57511 1.64435 1.54745 1.68574 1.52858 1.7313C1.50971 1.77685 1.5 1.82568 1.5 1.87499C1.5 1.92429 1.50971 1.97312 1.52858 2.01867C1.54745 2.06423 1.57511 2.10562 1.60997 2.14049L4.23497 4.76399C2.93507 5.6509 2.03005 7.00763 1.71047 8.54849C1.70043 8.59675 1.69999 8.64651 1.70917 8.69494C1.71836 8.74338 1.737 8.78952 1.76402 8.83075C1.79104 8.87198 1.82592 8.90749 1.86666 8.93524C1.9074 8.96299 1.95321 8.98244 2.00147 8.99249C2.04973 9.00253 2.0995 9.00297 2.14793 8.99379C2.19636 8.9846 2.24251 8.96596 2.28374 8.93894C2.32497 8.91192 2.36047 8.87704 2.38822 8.8363C2.41597 8.79556 2.43543 8.74975 2.44547 8.70149C2.58895 8.00906 2.86889 7.35214 3.26898 6.76908C3.66907 6.18601 4.18128 5.68847 4.77572 5.30549L5.96522 6.49499C5.6568 6.71738 5.40038 7.00413 5.21369 7.33539C5.027 7.66665 4.91451 8.03451 4.884 8.41353C4.85349 8.79254 4.90568 9.17366 5.03697 9.53052C5.16826 9.88738 5.37551 10.2115 5.64438 10.4803C5.91325 10.7492 6.23733 10.9565 6.59419 11.0877C6.95104 11.219 7.33217 11.2712 7.71118 11.2407C8.0902 11.2102 8.45806 11.0977 8.78932 10.911C9.12058 10.7243 9.40733 10.4679 9.62972 10.1595L12.86 13.3905C12.9304 13.4609 13.0259 13.5005 13.1255 13.5005C13.2251 13.5005 13.3206 13.4609 13.391 13.3905C13.4614 13.3201 13.5009 13.2246 13.5009 13.125C13.5009 13.0254 13.4614 12.9299 13.391 12.8595L2.14097 1.60949ZM9.08972 9.61949C8.94003 9.85831 8.73843 10.0603 8.4999 10.2105C8.26136 10.3606 7.99205 10.4551 7.71198 10.4868C7.4319 10.5185 7.14829 10.4867 6.88222 10.3937C6.61615 10.3007 6.37447 10.1489 6.17517 9.94954C5.97586 9.75024 5.82405 9.50856 5.73103 9.24249C5.63802 8.97642 5.60618 8.6928 5.6379 8.41273C5.66962 8.13266 5.76407 7.86335 5.91423 7.62481C6.06439 7.38628 6.2664 7.18468 6.50522 7.03499L9.08972 9.61949ZM7.59347 6.00149L10.124 8.53199C10.1005 7.86834 9.82634 7.23825 9.35677 6.76869C8.88721 6.29912 8.25712 6.02498 7.59347 6.00149ZM7.50047 4.49999C7.07297 4.49999 6.65372 4.55549 6.25097 4.65974L5.64872 4.05749C6.24507 3.85468 6.87058 3.75081 7.50047 3.74999C10.2702 3.74999 12.707 5.75474 13.2905 8.54849C13.3108 8.64595 13.2915 8.74749 13.2369 8.83075C13.1824 8.91402 13.0969 8.9722 12.9995 8.99249C12.902 9.01277 12.8005 8.99351 12.7172 8.93894C12.6339 8.88437 12.5758 8.79895 12.5555 8.70149C12.044 6.24524 9.90572 4.49999 7.50047 4.49999Z" fill="#8B8B8B"/>
</svg>
