<svg width="15" height="15" viewBox="0 0 15 15" fill="none" xmlns="http://www.w3.org/2000/svg">
<path d="M13.5297 8.5715H13.5323H13.527H13.5297ZM13.152 8.29293C13.2056 8.46328 13.3598 8.57043 13.5297 8.5715C13.5672 8.5715 13.6084 8.56078 13.6502 8.55007C13.8591 8.48578 13.977 8.25543 13.9073 8.0465C13.8913 7.99828 12.2841 3.21436 7.49913 3.21436C2.71413 3.21436 1.10645 7.99828 1.09038 8.0465C1.02074 8.25543 1.13859 8.48043 1.34752 8.55007C1.56181 8.61971 1.78681 8.50186 1.85645 8.29293L1.85806 8.29025C1.92931 8.08132 3.32431 4.01793 7.50449 4.01793C11.7056 4.01793 13.0931 8.11614 13.152 8.29293ZM5.62413 8.5715C5.62413 8.07422 5.82167 7.5973 6.1733 7.24567C6.52494 6.89404 7.00185 6.6965 7.49913 6.6965C7.99641 6.6965 8.47332 6.89404 8.82496 7.24567C9.17659 7.5973 9.37413 8.07422 9.37413 8.5715C9.37413 9.06878 9.17659 9.54569 8.82496 9.89732C8.47332 10.249 7.99641 10.4465 7.49913 10.4465C7.00185 10.4465 6.52494 10.249 6.1733 9.89732C5.82167 9.54569 5.62413 9.06878 5.62413 8.5715ZM7.49913 5.89293C6.78873 5.89293 6.10742 6.17513 5.60509 6.67746C5.10276 7.17979 4.82056 7.8611 4.82056 8.5715C4.82056 9.2819 5.10276 9.9632 5.60509 10.4655C6.10742 10.9679 6.78873 11.2501 7.49913 11.2501C8.20953 11.2501 8.89084 10.9679 9.39317 10.4655C9.8955 9.9632 10.1777 9.2819 10.1777 8.5715C10.1777 7.8611 9.8955 7.17979 9.39317 6.67746C8.89084 6.17513 8.20953 5.89293 7.49913 5.89293Z" fill="#8B8B8B"/>
</svg>
