<svg width="182" height="179" viewBox="0 0 182 179" fill="none" xmlns="http://www.w3.org/2000/svg">
<g id="fluent:person-28-regular">
<path id="Vector" d="M136.065 102.076C141.194 102.076 146.113 104.091 149.74 107.679C153.367 111.267 155.405 116.134 155.405 121.208V125.768C155.405 148.581 128.265 165.851 90.9386 165.851C53.6127 165.851 26.4724 149.48 26.4724 125.768V121.208C26.4724 116.134 28.51 111.267 32.1369 107.679C35.7639 104.091 40.683 102.076 45.8123 102.076H136.065ZM136.065 111.642H45.8123C43.4095 111.642 41.0927 112.527 39.3134 114.124C37.5341 115.722 36.4197 117.917 36.1875 120.283L36.1423 121.208V125.768C36.1423 142.822 57.9899 156.285 90.9386 156.285C122.695 156.285 144.8 142.86 145.709 126.795L145.735 125.768V121.208C145.735 118.831 144.84 116.539 143.226 114.779C141.611 113.019 139.391 111.916 137 111.686L136.065 111.642ZM90.9386 12.7898C96.0181 12.7898 101.048 13.7796 105.741 15.7026C110.434 17.6256 114.698 20.4442 118.289 23.9974C121.881 27.5507 124.73 31.769 126.674 36.4116C128.618 41.0542 129.618 46.03 129.618 51.0551C129.618 56.0802 128.618 61.056 126.674 65.6986C124.73 70.3412 121.881 74.5595 118.289 78.1128C114.698 81.666 110.434 84.4846 105.741 86.4076C101.048 88.3307 96.0181 89.3204 90.9386 89.3204C80.6801 89.3204 70.8418 85.2889 63.5879 78.1128C56.3341 70.9366 52.2589 61.2037 52.2589 51.0551C52.2589 40.9065 56.3341 31.1736 63.5879 23.9974C70.8418 16.8213 80.6801 12.7898 90.9386 12.7898ZM90.9386 22.3561C83.2448 22.3561 75.866 25.3798 70.4256 30.7619C64.9852 36.144 61.9288 43.4437 61.9288 51.0551C61.9288 58.6665 64.9852 65.9662 70.4256 71.3483C75.866 76.7304 83.2448 79.7541 90.9386 79.7541C98.6325 79.7541 106.011 76.7304 111.452 71.3483C116.892 65.9662 119.948 58.6665 119.948 51.0551C119.948 43.4437 116.892 36.144 111.452 30.7619C106.011 25.3798 98.6325 22.3561 90.9386 22.3561Z" fill="#88D9E9"/>
</g>
</svg>
