<svg width="55" height="55" viewBox="0 0 55 55" fill="none" xmlns="http://www.w3.org/2000/svg">
<path fill-rule="evenodd" clip-rule="evenodd" d="M27.127 50.4139L27.5006 50.4169C26.9947 50.4168 26.4889 50.4003 25.984 50.3675C25.3593 50.3265 24.7364 50.2602 24.117 50.1687C23.3975 50.0622 22.6834 49.9214 21.9773 49.7468C21.2812 49.5745 20.5937 49.3695 19.917 49.1323L19.9132 49.1309C18.7988 48.7401 17.7165 48.2631 16.676 47.7044C15.9376 47.3079 15.2215 46.8712 14.531 46.3962C13.7545 45.8622 13.0116 45.2811 12.3064 44.6559C12.0601 44.4376 11.8184 44.214 11.5816 43.9853C7.26695 39.8178 4.58398 33.9723 4.58398 27.5001C4.58398 14.8437 14.8442 4.5835 27.5006 4.5835C30.5101 4.58348 33.4901 5.17623 36.2705 6.32789C39.0508 7.47955 41.5772 9.16758 43.7052 11.2956C45.8332 13.4236 47.5212 15.9499 48.6729 18.7303C49.8246 21.5107 50.4174 24.4907 50.4174 27.5001C50.4174 33.9725 47.7342 39.8182 43.4195 43.9855C43.4193 43.9858 43.4193 43.9862 43.4195 43.9868C42.334 45.0345 41.1483 45.9732 39.8795 46.7892L39.8618 46.8005C39.574 46.9854 39.2821 47.1636 38.9863 47.3351L38.955 47.3534C38.4374 47.6525 37.9084 47.9313 37.369 48.1892C37.1579 48.2897 36.9454 48.3873 36.7315 48.4818C36.5083 48.5799 36.2837 48.6746 36.0577 48.7659C35.8386 48.8539 35.6182 48.9387 35.3966 49.0203C35.1725 49.1023 34.9473 49.181 34.7209 49.2563C34.4983 49.3299 34.2747 49.4002 34.05 49.4673C33.812 49.538 33.5729 49.605 33.3328 49.6681C33.0991 49.7293 32.8644 49.7869 32.6289 49.8409C32.394 49.8945 32.1582 49.9444 31.9217 49.9907C30.9576 50.1792 29.9824 50.3053 29.0021 50.3684C28.7584 50.3842 28.5145 50.3961 28.2705 50.4042L28.2658 50.4043C27.8863 50.4168 27.5066 50.4199 27.127 50.4139ZM29.7924 36.6669H25.209C21.5585 36.6669 18.3658 38.815 16.8981 41.9559L16.7321 42.3364L16.8757 42.4426C19.4878 44.3032 22.6085 45.4961 25.9888 45.7721C26.0897 45.7803 26.1908 45.7877 26.2921 45.7943L26.0027 45.7731C26.1012 45.7811 26.1999 45.7883 26.2988 45.7947L26.2921 45.7943C26.3901 45.8007 26.4882 45.8064 26.5865 45.8112L26.2988 45.7947C26.4008 45.8014 26.5032 45.8071 26.6058 45.812L26.5865 45.8112C26.6601 45.8147 26.7338 45.8179 26.8075 45.8206L27.5006 45.8335L27.788 45.8313C27.8936 45.8297 27.9993 45.8272 28.1049 45.8238L27.8148 45.8308C27.9126 45.8292 28.0102 45.8268 28.1075 45.8236L28.1049 45.8237C28.203 45.8206 28.3011 45.8166 28.399 45.8119L28.1075 45.8236C28.2085 45.8202 28.3095 45.8162 28.4104 45.8113L28.399 45.8119C28.501 45.8069 28.6027 45.8012 28.7041 45.7947L28.4104 45.8113C28.5097 45.8065 28.6089 45.8008 28.7079 45.7944L28.7042 45.7946C28.8034 45.7882 28.9025 45.781 29.0013 45.773L28.7078 45.7944C28.8088 45.7878 28.9097 45.7804 29.0104 45.7723L29.0013 45.773C29.0973 45.7651 29.193 45.7566 29.2885 45.7475L29.0104 45.7723C29.1107 45.7641 29.2107 45.755 29.3106 45.7453L29.2885 45.7475C32.5559 45.4312 35.5723 44.2573 38.1099 42.4537L38.2669 42.3364L38.1034 41.9563C36.6999 38.9519 33.7177 36.8555 30.2659 36.6789L29.7924 36.6669ZM27.5006 9.16687C17.3755 9.16687 9.16735 17.375 9.16735 27.5001C9.16735 31.8726 10.698 35.8876 13.2527 39.0383C15.619 34.8841 20.0869 32.0835 25.209 32.0835H29.7924C34.9146 32.0835 39.3825 34.8843 41.7484 39.038C44.3032 35.8876 45.834 31.8726 45.834 27.5001C45.834 17.375 37.6259 9.16687 27.5006 9.16687ZM27.5006 11.4585C32.5633 11.4585 36.6674 15.5625 36.6674 20.6251C36.6674 25.5343 32.8082 29.5422 27.9581 29.7807L27.5006 29.7919C22.438 29.7919 18.334 25.6878 18.334 20.6251C18.334 15.7159 22.1931 11.708 27.0431 11.4697L27.5006 11.4585ZM27.5006 16.0419C24.9693 16.0419 22.9174 18.0938 22.9174 20.6251C22.9174 23.1564 24.9693 25.2085 27.5006 25.2085C30.0319 25.2085 32.084 23.1564 32.084 20.6251C32.084 18.0938 30.0319 16.0419 27.5006 16.0419Z" fill="#6D6D6D"/>
</svg>
