<svg width="46" height="45" viewBox="0 0 46 45" fill="none" xmlns="http://www.w3.org/2000/svg">
<path d="M45.1264 22.3214C45.1264 34.6492 35.0245 44.6429 22.5632 44.6429C10.1019 44.6429 0 34.6492 0 22.3214C0 9.99364 10.1019 0 22.5632 0C35.0245 0 45.1264 9.99364 45.1264 22.3214Z" fill="#88D9E9"/>
<path d="M33.6955 18.1425H26.1745V10.7373C26.1745 9.75528 25.7783 8.81351 25.073 8.11914C24.3678 7.42476 23.4113 7.03467 22.4139 7.03467C21.4166 7.03467 20.4601 7.42476 19.7548 8.11914C19.0496 8.81351 18.6534 9.75528 18.6534 10.7373L18.7869 18.1425H11.1324C10.135 18.1425 9.1785 18.5326 8.47326 19.227C7.76802 19.9213 7.37183 20.8631 7.37183 21.8451C7.37183 22.8271 7.76802 23.7689 8.47326 24.4632C9.1785 25.1576 10.135 25.5477 11.1324 25.5477L18.7869 25.4163L18.6534 32.9529C18.6534 33.9349 19.0496 34.8767 19.7548 35.571C20.4601 36.2654 21.4166 36.6555 22.4139 36.6555C23.4113 36.6555 24.3678 36.2654 25.073 35.571C25.7783 34.8767 26.1745 33.9349 26.1745 32.9529V25.4163L33.6955 25.5477C34.6929 25.5477 35.6494 25.1576 36.3546 24.4632C37.0599 23.7689 37.4561 22.8271 37.4561 21.8451C37.4561 20.8631 37.0599 19.9213 36.3546 19.227C35.6494 18.5326 34.6929 18.1425 33.6955 18.1425Z" fill="white"/>
</svg>
