<svg width="55" height="55" viewBox="0 0 55 55" fill="none" xmlns="http://www.w3.org/2000/svg">
<path d="M6.875 22.9167V9.16667C6.875 8.51736 7.095 7.97347 7.535 7.535C7.975 7.09653 8.51889 6.87653 9.16667 6.875H22.9167C23.566 6.875 24.1106 7.095 24.5506 7.535C24.9906 7.975 25.2099 8.51889 25.2083 9.16667V22.9167C25.2083 23.566 24.9883 24.1106 24.5483 24.5506C24.1083 24.9906 23.5644 25.2099 22.9167 25.2083H9.16667C8.51736 25.2083 7.97347 24.9883 7.535 24.5483C7.09653 24.1083 6.87653 23.5644 6.875 22.9167ZM11.4583 20.625H20.625V11.4583H11.4583V20.625ZM6.875 45.8333V32.0833C6.875 31.434 7.095 30.8901 7.535 30.4517C7.975 30.0132 8.51889 29.7932 9.16667 29.7917H22.9167C23.566 29.7917 24.1106 30.0117 24.5506 30.4517C24.9906 30.8917 25.2099 31.4356 25.2083 32.0833V45.8333C25.2083 46.4826 24.9883 47.0273 24.5483 47.4673C24.1083 47.9073 23.5644 48.1265 22.9167 48.125H9.16667C8.51736 48.125 7.97347 47.905 7.535 47.465C7.09653 47.025 6.87653 46.4811 6.875 45.8333ZM11.4583 43.5417H20.625V34.375H11.4583V43.5417ZM29.7917 22.9167V9.16667C29.7917 8.51736 30.0117 7.97347 30.4517 7.535C30.8917 7.09653 31.4356 6.87653 32.0833 6.875H45.8333C46.4826 6.875 47.0273 7.095 47.4673 7.535C47.9073 7.975 48.1265 8.51889 48.125 9.16667V22.9167C48.125 23.566 47.905 24.1106 47.465 24.5506C47.025 24.9906 46.4811 25.2099 45.8333 25.2083H32.0833C31.434 25.2083 30.8901 24.9883 30.4517 24.5483C30.0132 24.1083 29.7932 23.5644 29.7917 22.9167ZM34.375 20.625H43.5417V11.4583H34.375V20.625ZM43.5417 48.125V43.5417H48.125V48.125H43.5417ZM29.7917 34.375V29.7917H34.375V34.375H29.7917ZM34.375 38.9583V34.375H38.9583V38.9583H34.375ZM29.7917 43.5417V38.9583H34.375V43.5417H29.7917ZM34.375 48.125V43.5417H38.9583V48.125H34.375ZM38.9583 43.5417V38.9583H43.5417V43.5417H38.9583ZM38.9583 34.375V29.7917H43.5417V34.375H38.9583ZM43.5417 38.9583V34.375H48.125V38.9583H43.5417Z" fill="#6D6D6D"/>
</svg>
