<svg width="30" height="32" viewBox="0 0 30 32" fill="none" xmlns="http://www.w3.org/2000/svg">
<path d="M14.0605 20.6406C13.6062 19.9918 13.2886 19.3499 13.1076 18.7148C12.9266 18.0798 12.8744 17.3985 12.951 16.671C13.0473 15.9298 13.2644 15.0892 13.6024 14.1494C13.8894 13.3039 14.0928 12.5901 14.2126 12.0081C14.3522 11.4124 14.3835 10.8923 14.3068 10.448C14.2497 9.98987 14.0766 9.55439 13.7876 9.14153C13.347 8.51242 12.7808 8.20578 12.0887 8.22161C11.4025 8.20401 10.6465 8.48429 9.82082 9.06246C8.99512 9.64062 8.26872 10.3397 7.64163 11.1597C7.01454 11.9796 6.42974 12.9018 5.88722 13.9263L2.11486 11.8653C2.70651 10.66 3.44562 9.49786 4.3322 8.379C5.21878 7.26013 6.3305 6.23266 7.66736 5.29658C9.71196 3.86494 11.6387 3.24828 13.4476 3.44661C15.2762 3.63117 16.7204 4.48035 17.7804 5.99414C18.3448 6.80019 18.7057 7.58758 18.8631 8.35633C19.0205 9.12507 19.0226 9.94398 18.8693 10.813C18.7023 11.6624 18.4351 12.6406 18.0675 13.7476C17.7865 14.5597 17.5919 15.2233 17.4839 15.7385C17.3758 16.2536 17.3591 16.6901 17.4339 17.0479C17.5283 17.392 17.7201 17.7704 18.0092 18.1833L18.608 19.0385L14.8038 21.7022L14.0605 20.6406ZM17.7804 26.9573C17.1471 26.053 16.9524 25.2518 17.1961 24.5538C17.426 23.8361 17.8949 23.2295 18.6026 22.7339C19.2907 22.2521 20.0113 22.0259 20.7643 22.0553C21.5036 22.065 22.1898 22.522 22.8231 23.4264C23.4287 24.2914 23.6235 25.0926 23.4073 25.8299C23.1774 26.5476 22.7184 27.1473 22.0303 27.6291C21.3225 28.1247 20.5921 28.3578 19.8391 28.3284C19.0723 28.2794 18.386 27.8223 17.7804 26.9573Z" fill="#404040"/>
</svg>
