<svg width="90" height="91" viewBox="0 0 90 91" fill="none" xmlns="http://www.w3.org/2000/svg">
<g filter="url(#filter0_d_371_485)">
<path d="M18.4839 18.4838C21.9496 14.9291 26.0866 12.098 30.655 10.1546C35.2234 8.21122 40.1322 7.19432 45.0967 7.16286C50.0611 7.1314 54.9824 8.08602 59.5751 9.97133C64.1677 11.8566 68.3403 14.6351 71.8508 18.1456C75.3613 21.6561 78.1398 25.8287 80.0251 30.4213C81.9104 35.014 82.865 39.9353 82.8335 44.8997C82.8021 49.8642 81.7852 54.773 79.8418 59.3414C77.8984 63.9098 75.0673 68.0468 71.5126 71.5125C64.44 78.3434 54.9675 82.1232 45.1351 82.0378C35.3027 81.9523 25.8972 78.0085 18.9444 71.0557C11.9916 64.1029 8.0478 54.6974 7.96236 44.8651C7.87691 35.0327 11.6567 25.5601 18.4876 18.4875L18.4839 18.4838ZM48.7501 33.75C48.7501 32.7555 48.355 31.8016 47.6518 31.0984C46.9485 30.3951 45.9947 30 45.0001 30C44.0056 30 43.0517 30.3951 42.3485 31.0984C41.6452 31.8016 41.2501 32.7555 41.2501 33.75V41.25H33.7501C32.7556 41.25 31.8017 41.6451 31.0985 42.3484C30.3952 43.0516 30.0001 44.0055 30.0001 45C30.0001 45.9946 30.3952 46.9484 31.0985 47.6517C31.8017 48.3549 32.7556 48.75 33.7501 48.75H41.2501V56.25C41.2501 57.2446 41.6452 58.1984 42.3485 58.9017C43.0517 59.6049 44.0056 60 45.0001 60C45.9947 60 46.9485 59.6049 47.6518 58.9017C48.355 58.1984 48.7501 57.2446 48.7501 56.25V48.75H56.2501C57.2447 48.75 58.1985 48.3549 58.9018 47.6517C59.605 46.9484 60.0001 45.9946 60.0001 45C60.0001 44.0055 59.605 43.0516 58.9018 42.3484C58.1985 41.6451 57.2447 41.25 56.2501 41.25H48.7501V33.75Z" fill="#52ABBD"/>
</g>
<defs>
<filter id="filter0_d_371_485" x="-4" y="0" width="98" height="98" filterUnits="userSpaceOnUse" color-interpolation-filters="sRGB">
<feFlood flood-opacity="0" result="BackgroundImageFix"/>
<feColorMatrix in="SourceAlpha" type="matrix" values="0 0 0 0 0 0 0 0 0 0 0 0 0 0 0 0 0 0 127 0" result="hardAlpha"/>
<feOffset dy="4"/>
<feGaussianBlur stdDeviation="2"/>
<feComposite in2="hardAlpha" operator="out"/>
<feColorMatrix type="matrix" values="0 0 0 0 0 0 0 0 0 0 0 0 0 0 0 0 0 0 0.25 0"/>
<feBlend mode="normal" in2="BackgroundImageFix" result="effect1_dropShadow_371_485"/>
<feBlend mode="normal" in="SourceGraphic" in2="effect1_dropShadow_371_485" result="shape"/>
</filter>
</defs>
</svg>
