<svg width="55" height="55" viewBox="0 0 55 55" fill="none" xmlns="http://www.w3.org/2000/svg">
<path fill-rule="evenodd" clip-rule="evenodd" d="M11.0092 49.6008C11.9137 49.7637 12.831 49.845 13.75 49.8437C16.655 49.8503 19.5022 49.0326 21.961 47.4856C23.7348 47.9027 25.591 48.125 27.5 48.125C39.6963 48.125 49.8438 39.0271 49.8438 27.5C49.8438 15.9729 39.6963 6.875 27.5 6.875C15.3038 6.875 5.15625 15.9729 5.15625 27.5C5.15625 33.0206 7.50521 38.0119 11.2842 41.69C11.8158 42.2079 11.919 42.6708 11.8663 42.9344C11.583 44.3599 10.941 45.6897 10.0008 46.7981C9.80565 47.0285 9.67462 47.3063 9.62094 47.6035C9.56726 47.9007 9.59282 48.2067 9.69505 48.4909C9.79728 48.775 9.97257 49.0272 10.2033 49.2221C10.434 49.4169 10.7119 49.5476 11.0092 49.6008ZM18.9062 24.9219C18.2225 24.9219 17.5667 25.1935 17.0832 25.677C16.5997 26.1605 16.3281 26.8162 16.3281 27.5C16.3281 28.1838 16.5997 28.8395 17.0832 29.323C17.5667 29.8065 18.2225 30.0781 18.9062 30.0781C19.59 30.0781 20.2458 29.8065 20.7293 29.323C21.2128 28.8395 21.4844 28.1838 21.4844 27.5C21.4844 26.8162 21.2128 26.1605 20.7293 25.677C20.2458 25.1935 19.59 24.9219 18.9062 24.9219ZM24.9219 27.5C24.9219 26.8162 25.1935 26.1605 25.677 25.677C26.1605 25.1935 26.8162 24.9219 27.5 24.9219C28.1838 24.9219 28.8395 25.1935 29.323 25.677C29.8065 26.1605 30.0781 26.8162 30.0781 27.5C30.0781 28.1838 29.8065 28.8395 29.323 29.323C28.8395 29.8065 28.1838 30.0781 27.5 30.0781C26.8162 30.0781 26.1605 29.8065 25.677 29.323C25.1935 28.8395 24.9219 28.1838 24.9219 27.5ZM36.0938 24.9219C35.41 24.9219 34.7542 25.1935 34.2707 25.677C33.7872 26.1605 33.5156 26.8162 33.5156 27.5C33.5156 28.1838 33.7872 28.8395 34.2707 29.323C34.7542 29.8065 35.41 30.0781 36.0938 30.0781C36.7775 30.0781 37.4333 29.8065 37.9168 29.323C38.4003 28.8395 38.6719 28.1838 38.6719 27.5C38.6719 26.8162 38.4003 26.1605 37.9168 25.677C37.4333 25.1935 36.7775 24.9219 36.0938 24.9219Z" fill="#6D6D6D"/>
</svg>
